<?xml version="1.0" encoding="UTF-8"?>
<svg width="25px" height="26px" viewBox="0 0 25 26" version="1.1" xmlns="http://www.w3.org/2000/svg" xmlns:xlink="http://www.w3.org/1999/xlink">
    <title>Group 5</title>
    <g id="Symbols" stroke="none" stroke-width="1" fill="none" fill-rule="evenodd">
        <g id="Buttons/White/External-Link/White-Blue" transform="translate(-109.000000, -13.000000)" fill="#129151" fill-rule="nonzero">
            <g id="Group-5" transform="translate(121.500000, 26.000000) rotate(-45.000000) translate(-121.500000, -26.000000) translate(112.000000, 18.000000)">
                <path d="M12.5749765,1.18519233 L12.6819805,1.28248558 L18.3388348,6.93933983 C18.8901632,7.49066824 18.9225943,8.36439812 18.436128,8.95365611 L18.3388348,9.06066017 L12.6819805,14.7175144 C12.0961941,15.3033009 11.1464466,15.3033009 10.5606602,14.7175144 C10.0093318,14.166186 9.97690068,13.2924561 10.4633669,12.7031981 L10.5606602,12.5961941 L13.657,9.49914575 L1.5,9.5 C0.671572875,9.5 2.27373675e-13,8.82842712 2.27373675e-13,8 C2.27373675e-13,7.22030388 0.594888083,6.57955132 1.35553999,6.50686658 L1.5,6.5 L13.655,6.49914575 L10.5606602,3.40380592 C10.0093318,2.85247751 9.97690068,1.97874763 10.4633669,1.38948964 L10.5606602,1.28248558 C11.1119886,0.731157167 11.9857185,0.698726084 12.5749765,1.18519233 Z" id="Path"></path>
            </g>
        </g>
    </g>
</svg>
